# ASF file generated by Tido's ASF writer for MATLAB.
:version 1.10
:name VICON
:units
  mass 1
  length 0.45000000000000001
  angle deg
:documentation
   .ast/.asf automatically generated from VICON data using
   VICON BodyBuilder and BodyLanguage model FoxedUp or BRILLIANT.MOD
:root
  axis xyz
  order tx ty tz rx ry rz 
  position 0 0 0
  orientation 0 0 0
:bonedata
  begin
    id 1
    name lhipjoint
    direction 0.44017800000000001 -0.82263900000000001 0.359871
    length 1.1390085000000001
    axis 0 0 0 xyz
  end
  begin
    id 2
    name lfemur
    direction 0.34201999999999999 -0.939693 0
    length 3.5465939999999998
    axis 0 0 20 xyz
    dof rx ry rz 
    limits (-160 20)
           (-70 70)
           (-60 70)
  end
  begin
    id 3
    name ltibia
    direction 0.34201999999999999 -0.939693 0
    length 3.7970234999999999
    axis 0 0 20 xyz
    dof rx 
    limits (-10 170)
  end
  begin
    id 4
    name lfoot
    direction 0.088635099999999994 -0.24352299999999999 0.96583699999999995
    length 1.1853629999999999
    axis -90 7.62852e-016 20 xyz
    dof rx rz 
    limits (-45 90)
           (-70 20)
  end
  begin
    id 5
    name ltoes
    direction 1.53703e-011 -4.2171700000000001e-011 1
    length 0.59142150000000004
    axis -90 7.62852e-016 20 xyz
    dof rx 
    limits (-90 20)
  end
  begin
    id 6
    name rhipjoint
    direction -0.399779 -0.83977299999999999 0.367367
    length 1.115766
    axis 0 0 0 xyz
  end
  begin
    id 7
    name rfemur
    direction -0.34201999999999999 -0.939693 0
    length 3.4866269999999999
    axis 0 0 -20 xyz
    dof rx ry rz 
    limits (-160 20)
           (-70 70)
           (-70 60)
  end
  begin
    id 8
    name rtibia
    direction -0.34201999999999999 -0.939693 0
    length 3.9349440000000002
    axis 0 0 -20 xyz
    dof rx 
    limits (-10 170)
  end
  begin
    id 9
    name rfoot
    direction -0.108514 -0.29813899999999999 0.94833400000000001
    length 1.1974590000000001
    axis -90 -7.62852e-016 -20 xyz
    dof rx rz 
    limits (-45 90)
           (-20 70)
  end
  begin
    id 10
    name rtoes
    direction -1.5339199999999999e-011 -4.2207699999999999e-011 1
    length 0.59392350000000005
    axis -90 -7.62852e-016 -20 xyz
    dof rx 
    limits (-90 20)
  end
  begin
    id 11
    name lowerback
    direction 0.011325699999999999 0.99986600000000003 0.0118602
    length 1.164123
    axis 0 0 0 xyz
    dof rx ry rz 
    limits (-20 45)
           (-30 30)
           (-30 30)
  end
  begin
    id 12
    name upperback
    direction -0.016474699999999998 0.99519299999999999 -0.096537499999999998
    length 1.135656
    axis 0 0 0 xyz
    dof rx ry rz 
    limits (-20 45)
           (-30 30)
           (-30 30)
  end
  begin
    id 13
    name thorax
    direction -0.019430099999999999 0.99433000000000005 -0.10455200000000001
    length 1.1524455
    axis 0 0 0 xyz
    dof rx ry rz 
    limits (-20 45)
           (-30 30)
           (-30 30)
  end
  begin
    id 14
    name lowerneck
    direction 0.014854300000000001 0.995587 -0.092657000000000003
    length 0.772119
    axis 0 0 0 xyz
    dof rx ry rz 
    limits (-20 45)
           (-30 30)
           (-30 30)
  end
  begin
    id 15
    name upperneck
    direction -0.0135467 0.99365599999999998 -0.111639
    length 0.76021650000000007
    axis 0 0 0 xyz
    dof rx ry rz 
    limits (-20 45)
           (-30 30)
           (-30 30)
  end
  begin
    id 16
    name head
    direction -0.0061534900000000002 0.99954699999999996 -0.029447999999999998
    length 0.78578999999999999
    axis 0 0 0 xyz
    dof rx ry rz 
    limits (-20 45)
           (-30 30)
           (-30 30)
  end
  begin
    id 17
    name lclavicle
    direction 0.98826700000000001 0.14988499999999999 0.029371299999999999
    length 2.012499
    axis 0 0 0 xyz
    dof ry rz 
    limits (-20 10)
           (0 20)
  end
  begin
    id 18
    name lhumerus
    direction 1 -4.4898600000000001e-011 -1.1483300000000001e-027
    length 2.4171659999999999
    axis 180 -30 -90 xyz
    dof rx ry rz 
    limits (-60 90)
           (-90 90)
           (-90 90)
  end
  begin
    id 19
    name lradius
    direction 0.99999800000000005 0.00170963 -0.00098705499999999992
    length 1.773954
    axis 180 -30 -90 xyz
    dof rx 
    limits (-10 170)
  end
  begin
    id 20
    name lwrist
    direction 0.99999800000000005 7.53149e-005 -0.00194706
    length 0.88697700000000002
    axis 4.6505600000000004e-015 90 90 xyz
    dof ry 
    limits (-180 0)
  end
  begin
    id 21
    name lhand
    direction 1 -4.48973e-011 -1.3174599999999999e-026
    length 0.5306265
    axis 8.4064999999999996e-015 90 90 xyz
    dof rx rz 
    limits (-90 90)
           (-45 45)
  end
  begin
    id 22
    name lfingers
    direction 1 -4.49107e-011 -2.6349199999999999e-026
    length 0.42780555000000003
    axis 1.6812999999999999e-014 90 90 xyz
    dof rx 
    limits (0 90)
  end
  begin
    id 23
    name lthumb
    direction 0.70710700000000004 -6.3504800000000005e-011 0.70710700000000004
    length 0.6142455
    axis -90 45 2.8529899999999998e-015 xyz
    dof rx rz 
    limits (-45 45)
           (-45 45)
  end
  begin
    id 24
    name rclavicle
    direction -0.996699 0.064289499999999999 -0.049572499999999999
    length 2.0817494999999999
    axis 0 0 0 xyz
    dof ry rz 
    limits (-10 20)
           (-20 0)
  end
  begin
    id 25
    name rhumerus
    direction -1 -4.4891899999999998e-011 -2.4105900000000001e-027
    length 2.474145
    axis 180 30 90 xyz
    dof rx ry rz 
    limits (-90 60)
           (-90 90)
           (-90 90)
  end
  begin
    id 26
    name rradius
    direction -0.99999899999999997 0.0011810099999999999 -0.00068185800000000003
    length 1.5677145000000001
    axis 180 30 90 xyz
    dof rx 
    limits (-10 170)
  end
  begin
    id 27
    name rwrist
    direction -0.99999899999999997 0.000321823 -0.00132288
    length 0.78385499999999997
    axis 4.6505600000000004e-015 -90 -90 xyz
    dof ry 
    limits (-180 0)
  end
  begin
    id 28
    name rhand
    direction -1 -4.4902199999999998e-011 -1.3174599999999999e-026
    length 0.60719400000000001
    axis 8.4064999999999996e-015 -90 -90 xyz
    dof rx rz 
    limits (-90 90)
           (-45 45)
  end
  begin
    id 29
    name rfingers
    direction -1 -4.4917800000000002e-011 -2.6349199999999999e-026
    length 0.48953249999999998
    axis 1.6812999999999999e-014 -90 -90 xyz
    dof rx 
    limits (0 90)
  end
  begin
    id 30
    name rthumb
    direction -0.70710700000000004 -6.3471300000000002e-011 0.70710700000000004
    length 0.70287750000000004
    axis -90 -45 -2.8529899999999998e-015 xyz
    dof rx rz 
    limits (-45 45)
           (-45 45)
  end
:hierarchy
begin
  root lhipjoint rhipjoint lowerback 
  lhipjoint lfemur 
  lfemur ltibia 
  ltibia lfoot 
  lfoot ltoes 
  rhipjoint rfemur 
  rfemur rtibia 
  rtibia rfoot 
  rfoot rtoes 
  lowerback upperback 
  upperback thorax 
  thorax lowerneck lclavicle rclavicle 
  lowerneck upperneck 
  upperneck head 
  lclavicle lhumerus 
  lhumerus lradius 
  lradius lwrist 
  lwrist lhand lthumb 
  lhand lfingers 
  rclavicle rhumerus 
  rhumerus rradius 
  rradius rwrist 
  rwrist rhand rthumb 
  rhand rfingers 
end

# AMC file generated by Tido's AMC writer for MATLAB on 27-Nov-2005 at 18:24:20
# Corresponding ASF file: S:\data_MoCap\MoCaDaDB\HDM\Bonn_ASF_AMC_Use IK_on\björn\bjorn.asf
# Number of frames: 542
# Sampling rate: 120
:fully-specified
:degrees
356
root 10.16784 8.5252949999999998 -9.1619550000000007 -0.54639199999999999 34.571800000000003 363.77300000000002 
lfemur -11.4222 1.85063 -18.713799999999999 
ltibia 36.447899999999997 
lfoot -15.151400000000001 -5.5562899999999997 
ltoes -19.377300000000002 
rfemur -16.586600000000001 -4.9101299999999997 13.7575 
rtibia 68.985900000000001 
rfoot 11.6906 22.869199999999999 
rtoes -7.6283000000000003 
lowerback -0.696156 1.0831200000000001 -4.0903600000000004 
upperback 10.664199999999999 2.2674099999999999 -3.3513500000000001 
thorax 11.8461 0.98836299999999999 -1.0847 
lowerneck 2.0339100000000001 -4.8575200000000001 -0.79326300000000005 
upperneck 14.5023 -7.4735100000000001 9.2027900000000002 
head 4.3750099999999996 -3.2223199999999999 2.7158099999999998 
lclavicle -3.4191e-014 3.8961800000000003e-014 
lhumerus -6.2096099999999996 15.3004 72.470299999999995 
lradius 20.963699999999999 
lwrist -29.1873 
lhand -21.9663 -7.29352 
lfingers 7.1250200000000001 
lthumb 4.4413200000000002 22.639900000000001 
rclavicle -3.4191e-014 3.8961800000000003e-014 
rhumerus -40.840000000000003 -46.6877 -66.421499999999995 
rradius 12.7483 
rwrist 41.617800000000003 
rhand -8.5376899999999996 9.4851600000000005 
rfingers 7.1250200000000001 
rthumb 17.391400000000001 -19.756799999999998 
357
root 10.213380000000001 8.5230899999999998 -9.1199250000000003 -0.542184 34.4071 363.79500000000002 
lfemur -10.8589 2.1020500000000002 -18.7973 
ltibia 36.359999999999999 
lfoot -15.5906 -5.6543299999999999 
ltoes -19.243600000000001 
rfemur -17.759 -5.3788900000000002 13.9031 
rtibia 68.784599999999998 
rfoot 10.317600000000001 23.7652 
rtoes -8.2166800000000002 
lowerback -0.71340499999999996 0.96822699999999995 -4.1444000000000001 
upperback 10.706799999999999 2.1082299999999998 -3.2564899999999999 
thorax 11.901400000000001 0.89807999999999999 -0.969387 
lowerneck 2.05288 -4.7771499999999998 -0.86183100000000001 
upperneck 14.5092 -7.3588800000000001 9.1466899999999995 
head 4.3677999999999999 -3.1733799999999999 2.7147100000000002 
lclavicle 4.7708300000000003e-015 2.0673600000000001e-014 
lhumerus -5.7739099999999999 13.737299999999999 72.337699999999998 
lradius 22.034600000000001 
lwrist -27.2286 
lhand -22.4559 -7.2116899999999999 
lfingers 7.1250200000000001 
lthumb 3.9684900000000001 22.731100000000001 
rclavicle 4.7708300000000003e-015 2.0673600000000001e-014 
rhumerus -42.734400000000001 -47.851599999999998 -63.905900000000003 
rradius 12.374000000000001 
rwrist 43.042499999999997 
rhand -8.4942399999999996 9.5779099999999993 
rfingers 7.1250200000000001 
rthumb 17.433199999999999 -19.660299999999999 
358
root 10.257885 8.5193099999999991 -9.0772200000000005 -0.56415400000000004 34.262500000000003 363.81 
lfemur -10.2844 2.3716499999999998 -18.848299999999998 
ltibia 36.282800000000002 
lfoot -15.9862 -5.85954 
ltoes -18.828700000000001 
rfemur -18.8706 -5.8402000000000003 14.0914 
rtibia 68.478499999999997 
rfoot 8.83657 24.573699999999999 
rtoes -9.2016799999999996 
lowerback -0.70702100000000001 0.85384700000000002 -4.1546500000000002 
upperback 10.7536 1.9490400000000001 -3.19374 
thorax 11.9504 0.81453600000000004 -0.91368300000000002 
lowerneck 2.1545899999999998 -4.6863900000000003 -0.97188099999999999 
upperneck 14.4437 -7.2359799999999996 9.2103300000000008 
head 4.3294100000000002 -3.1217000000000001 2.7601599999999999 
lclavicle -8.8459200000000001e-014 3.9756899999999997e-015 
lhumerus -5.4047000000000001 12.268700000000001 72.132000000000005 
lradius 23.2272 
lwrist -25.271699999999999 
lhand -22.927099999999999 -7.1286899999999997 
lfingers 7.1250200000000001 
lthumb 3.5134599999999998 22.822099999999999 
rclavicle -8.8459200000000001e-014 3.9756899999999997e-015 
rhumerus -43.897199999999998 -47.842399999999998 -62.507100000000001 
rradius 12.1669 
rwrist 43.057600000000001 
rhand -8.3987200000000009 9.5764099999999992 
rfingers 7.1250200000000001 
rthumb 17.525200000000002 -19.653700000000001 
359
root 10.30275 8.5140000000000011 -9.0342450000000003 -0.58531 34.073999999999998 363.82900000000001 
lfemur -9.6890400000000003 2.6328999999999998 -18.910499999999999 
ltibia 36.195900000000002 
lfoot -16.405200000000001 -5.9981799999999996 
ltoes -18.5457 
rfemur -19.936900000000001 -6.2269500000000004 14.293699999999999 
rtibia 68.054000000000002 
rfoot 7.54894 25.2196 
rtoes -9.2432499999999997 
lowerback -0.70199500000000004 0.75849299999999997 -4.1674300000000004 
upperback 10.779 1.8133699999999999 -3.12622 
thorax 11.975300000000001 0.74192499999999995 -0.84863599999999995 
lowerneck 2.25143 -4.6003400000000001 -1.06019 
upperneck 14.456 -7.1208 9.2349899999999998 
head 4.3138800000000002 -3.0711900000000001 2.7892899999999998 
lclavicle 1.68967e-014 -7.1562499999999995e-015 
lhumerus -5.1844799999999998 11.048500000000001 71.926000000000002 
lradius 24.548300000000001 
lwrist -23.617599999999999 
lhand -23.363 -6.9726800000000004 
lfingers 7.1250200000000001 
lthumb 3.09253 22.9846 
rclavicle 1.68967e-014 -7.1562499999999995e-015 
rhumerus -45.116100000000003 -47.855899999999998 -61.127800000000001 
rradius 12.0602 
rwrist 42.964399999999998 
rhand -8.3729600000000008 9.5175800000000006 
rfingers 7.1250200000000001 
rthumb 17.549900000000001 -19.7103 
360
root 10.34667 8.5094550000000009 -8.9908200000000011 -0.57230599999999998 33.903300000000002 363.84699999999998 
lfemur -9.1276200000000003 2.9361199999999998 -18.957899999999999 
ltibia 36.082799999999999 
lfoot -16.8157 -6.1620100000000004 
ltoes -18.321400000000001 
rfemur -21.017800000000001 -6.7390999999999996 14.488200000000001 
rtibia 67.513199999999998 
rfoot 6.4462900000000003 25.758199999999999 
rtoes -8.7435600000000004 
lowerback -0.72516199999999997 0.65248700000000004 -4.1853300000000004 
upperback 10.799200000000001 1.66475 -3.0563500000000001 
thorax 12.011799999999999 0.66210199999999997 -0.77932400000000002 
lowerneck 2.3623500000000002 -4.5019499999999999 -1.2073700000000001 
upperneck 14.4367 -6.9941500000000003 9.3287200000000006 
head 4.2895200000000004 -3.0165000000000002 2.8502299999999998 
lclavicle 9.3826399999999994e-014 -3.33958e-014 
lhumerus -4.9443700000000002 9.9632799999999992 71.676699999999997 
lradius 25.8492 
lwrist -21.9983 
lhand -23.744499999999999 -7.0070399999999999 
lfingers 7.1250200000000001 
lthumb 2.72411 22.955300000000001 
rclavicle 9.3826399999999994e-014 -3.33958e-014 
rhumerus -46.163400000000003 -47.643300000000004 -60.020400000000002 
rradius 12.060600000000001 
rwrist 42.611699999999999 
rhand -8.3418700000000001 9.4871400000000001 
rfingers 7.1250200000000001 
rthumb 17.579899999999999 -19.738099999999999 
